<mxfile host="app.diagrams.net" agent="Mozilla/5.0 (Windows NT 10.0; Win64; x64) AppleWebKit/537.36 (KHTML, like Gecko) Chrome/126.0.0.0 YaBrowser/24.7.0.0 Safari/537.36" version="24.7.17">
  <diagram name="Страница — 1" id="wL0bHbokBfduc6_CIbOi">
    <mxGraphModel dx="953" dy="791" grid="1" gridSize="10" guides="1" tooltips="1" connect="1" arrows="1" fold="1" page="1" pageScale="1" pageWidth="827" pageHeight="1169" math="0" shadow="0">
      <root>
        <mxCell id="0" />
        <mxCell id="1" parent="0" />
        <mxCell id="_P0uxnq6mlZvh_pGcT41-8" style="edgeStyle=orthogonalEdgeStyle;rounded=0;orthogonalLoop=1;jettySize=auto;html=1;exitX=0.5;exitY=1;exitDx=0;exitDy=0;entryX=0.5;entryY=0;entryDx=0;entryDy=0;" edge="1" parent="1" source="_P0uxnq6mlZvh_pGcT41-2" target="_P0uxnq6mlZvh_pGcT41-3">
          <mxGeometry relative="1" as="geometry" />
        </mxCell>
        <mxCell id="_P0uxnq6mlZvh_pGcT41-2" value="" style="ellipse;fillColor=strokeColor;html=1;" vertex="1" parent="1">
          <mxGeometry x="410" y="40" width="30" height="30" as="geometry" />
        </mxCell>
        <mxCell id="_P0uxnq6mlZvh_pGcT41-9" style="edgeStyle=orthogonalEdgeStyle;rounded=0;orthogonalLoop=1;jettySize=auto;html=1;" edge="1" parent="1" source="_P0uxnq6mlZvh_pGcT41-3" target="_P0uxnq6mlZvh_pGcT41-4">
          <mxGeometry relative="1" as="geometry" />
        </mxCell>
        <mxCell id="_P0uxnq6mlZvh_pGcT41-18" value="Студент начинает первую лабораторную работу" style="edgeLabel;html=1;align=center;verticalAlign=middle;resizable=0;points=[];" vertex="1" connectable="0" parent="_P0uxnq6mlZvh_pGcT41-9">
          <mxGeometry x="0.2" y="1" relative="1" as="geometry">
            <mxPoint as="offset" />
          </mxGeometry>
        </mxCell>
        <mxCell id="_P0uxnq6mlZvh_pGcT41-3" value="начало курса" style="rounded=1;whiteSpace=wrap;html=1;" vertex="1" parent="1">
          <mxGeometry x="365" y="90" width="120" height="60" as="geometry" />
        </mxCell>
        <mxCell id="_P0uxnq6mlZvh_pGcT41-10" style="edgeStyle=orthogonalEdgeStyle;rounded=0;orthogonalLoop=1;jettySize=auto;html=1;exitX=0.5;exitY=1;exitDx=0;exitDy=0;" edge="1" parent="1" source="_P0uxnq6mlZvh_pGcT41-4" target="_P0uxnq6mlZvh_pGcT41-5">
          <mxGeometry relative="1" as="geometry">
            <mxPoint x="425" y="350" as="sourcePoint" />
          </mxGeometry>
        </mxCell>
        <mxCell id="_P0uxnq6mlZvh_pGcT41-19" value="Студент сдал первую лабораторную работу" style="edgeLabel;html=1;align=center;verticalAlign=middle;resizable=0;points=[];" vertex="1" connectable="0" parent="_P0uxnq6mlZvh_pGcT41-10">
          <mxGeometry x="0.0167" y="4" relative="1" as="geometry">
            <mxPoint as="offset" />
          </mxGeometry>
        </mxCell>
        <mxCell id="_P0uxnq6mlZvh_pGcT41-4" value="лабораторная работа №1" style="rounded=1;whiteSpace=wrap;html=1;" vertex="1" parent="1">
          <mxGeometry x="365" y="200" width="120" height="60" as="geometry" />
        </mxCell>
        <mxCell id="_P0uxnq6mlZvh_pGcT41-11" style="edgeStyle=orthogonalEdgeStyle;rounded=0;orthogonalLoop=1;jettySize=auto;html=1;" edge="1" parent="1" source="_P0uxnq6mlZvh_pGcT41-5" target="_P0uxnq6mlZvh_pGcT41-6">
          <mxGeometry relative="1" as="geometry" />
        </mxCell>
        <mxCell id="_P0uxnq6mlZvh_pGcT41-20" value="Студент сдал вторую лабораторную работу" style="edgeLabel;html=1;align=center;verticalAlign=middle;resizable=0;points=[];" vertex="1" connectable="0" parent="_P0uxnq6mlZvh_pGcT41-11">
          <mxGeometry x="-0.04" y="-2" relative="1" as="geometry">
            <mxPoint as="offset" />
          </mxGeometry>
        </mxCell>
        <mxCell id="_P0uxnq6mlZvh_pGcT41-5" value="лабораторная работа №2" style="rounded=1;whiteSpace=wrap;html=1;" vertex="1" parent="1">
          <mxGeometry x="365" y="310" width="120" height="60" as="geometry" />
        </mxCell>
        <mxCell id="_P0uxnq6mlZvh_pGcT41-12" style="edgeStyle=orthogonalEdgeStyle;rounded=0;orthogonalLoop=1;jettySize=auto;html=1;" edge="1" parent="1" source="_P0uxnq6mlZvh_pGcT41-6" target="_P0uxnq6mlZvh_pGcT41-7">
          <mxGeometry relative="1" as="geometry" />
        </mxCell>
        <mxCell id="_P0uxnq6mlZvh_pGcT41-23" value="Студент сдал третью лабораторную работу" style="edgeLabel;html=1;align=center;verticalAlign=middle;resizable=0;points=[];" vertex="1" connectable="0" parent="_P0uxnq6mlZvh_pGcT41-12">
          <mxGeometry x="-0.2" y="3" relative="1" as="geometry">
            <mxPoint as="offset" />
          </mxGeometry>
        </mxCell>
        <mxCell id="_P0uxnq6mlZvh_pGcT41-6" value="лабораторная работа №3" style="rounded=1;whiteSpace=wrap;html=1;" vertex="1" parent="1">
          <mxGeometry x="365" y="420" width="120" height="60" as="geometry" />
        </mxCell>
        <mxCell id="_P0uxnq6mlZvh_pGcT41-17" style="edgeStyle=orthogonalEdgeStyle;rounded=0;orthogonalLoop=1;jettySize=auto;html=1;entryX=0.5;entryY=0;entryDx=0;entryDy=0;" edge="1" parent="1" source="_P0uxnq6mlZvh_pGcT41-7" target="_P0uxnq6mlZvh_pGcT41-13">
          <mxGeometry relative="1" as="geometry" />
        </mxCell>
        <mxCell id="_P0uxnq6mlZvh_pGcT41-24" value="Студент сдал курсовой проект" style="edgeLabel;html=1;align=center;verticalAlign=middle;resizable=0;points=[];" vertex="1" connectable="0" parent="_P0uxnq6mlZvh_pGcT41-17">
          <mxGeometry x="-0.125" y="1" relative="1" as="geometry">
            <mxPoint as="offset" />
          </mxGeometry>
        </mxCell>
        <mxCell id="_P0uxnq6mlZvh_pGcT41-7" value="курсовой проект&amp;nbsp;" style="rounded=1;whiteSpace=wrap;html=1;" vertex="1" parent="1">
          <mxGeometry x="365" y="540" width="120" height="60" as="geometry" />
        </mxCell>
        <mxCell id="_P0uxnq6mlZvh_pGcT41-25" style="edgeStyle=orthogonalEdgeStyle;rounded=0;orthogonalLoop=1;jettySize=auto;html=1;entryX=0.5;entryY=0;entryDx=0;entryDy=0;" edge="1" parent="1" source="_P0uxnq6mlZvh_pGcT41-13" target="_P0uxnq6mlZvh_pGcT41-14">
          <mxGeometry relative="1" as="geometry" />
        </mxCell>
        <mxCell id="_P0uxnq6mlZvh_pGcT41-26" value="Студент сдал экзамен" style="edgeLabel;html=1;align=center;verticalAlign=middle;resizable=0;points=[];" vertex="1" connectable="0" parent="_P0uxnq6mlZvh_pGcT41-25">
          <mxGeometry x="-0.1444" y="-2" relative="1" as="geometry">
            <mxPoint as="offset" />
          </mxGeometry>
        </mxCell>
        <mxCell id="_P0uxnq6mlZvh_pGcT41-27" style="edgeStyle=orthogonalEdgeStyle;rounded=0;orthogonalLoop=1;jettySize=auto;html=1;entryX=0.5;entryY=0;entryDx=0;entryDy=0;" edge="1" parent="1" source="_P0uxnq6mlZvh_pGcT41-13" target="_P0uxnq6mlZvh_pGcT41-15">
          <mxGeometry relative="1" as="geometry" />
        </mxCell>
        <mxCell id="_P0uxnq6mlZvh_pGcT41-28" value="Студент не сдал экзамен" style="edgeLabel;html=1;align=center;verticalAlign=middle;resizable=0;points=[];" vertex="1" connectable="0" parent="_P0uxnq6mlZvh_pGcT41-27">
          <mxGeometry x="0.2111" y="1" relative="1" as="geometry">
            <mxPoint as="offset" />
          </mxGeometry>
        </mxCell>
        <mxCell id="_P0uxnq6mlZvh_pGcT41-13" value="экзамен" style="rounded=1;whiteSpace=wrap;html=1;" vertex="1" parent="1">
          <mxGeometry x="365" y="670" width="120" height="60" as="geometry" />
        </mxCell>
        <mxCell id="_P0uxnq6mlZvh_pGcT41-29" style="edgeStyle=orthogonalEdgeStyle;rounded=0;orthogonalLoop=1;jettySize=auto;html=1;" edge="1" parent="1" source="_P0uxnq6mlZvh_pGcT41-14">
          <mxGeometry relative="1" as="geometry">
            <mxPoint x="410" y="890" as="targetPoint" />
          </mxGeometry>
        </mxCell>
        <mxCell id="_P0uxnq6mlZvh_pGcT41-14" value="курс пройден" style="rounded=1;whiteSpace=wrap;html=1;" vertex="1" parent="1">
          <mxGeometry x="210" y="790" width="120" height="60" as="geometry" />
        </mxCell>
        <mxCell id="_P0uxnq6mlZvh_pGcT41-15" value="курс не пройден" style="rounded=1;whiteSpace=wrap;html=1;" vertex="1" parent="1">
          <mxGeometry x="510" y="790" width="120" height="60" as="geometry" />
        </mxCell>
        <mxCell id="_P0uxnq6mlZvh_pGcT41-32" value="" style="html=1;points=[];perimeter=orthogonalPerimeter;fillColor=strokeColor;rotation=90;" vertex="1" parent="1">
          <mxGeometry x="422.5" y="800" width="5" height="185" as="geometry" />
        </mxCell>
        <mxCell id="_P0uxnq6mlZvh_pGcT41-33" style="edgeStyle=orthogonalEdgeStyle;rounded=0;orthogonalLoop=1;jettySize=auto;html=1;entryX=0;entryY=0.262;entryDx=0;entryDy=0;entryPerimeter=0;exitX=0;exitY=0.5;exitDx=0;exitDy=0;" edge="1" parent="1" source="_P0uxnq6mlZvh_pGcT41-15" target="_P0uxnq6mlZvh_pGcT41-32">
          <mxGeometry relative="1" as="geometry" />
        </mxCell>
        <mxCell id="_P0uxnq6mlZvh_pGcT41-34" style="edgeStyle=orthogonalEdgeStyle;rounded=0;orthogonalLoop=1;jettySize=auto;html=1;entryX=0.5;entryY=0.3;entryDx=0;entryDy=0;entryPerimeter=0;" edge="1" parent="1" source="_P0uxnq6mlZvh_pGcT41-32">
          <mxGeometry relative="1" as="geometry">
            <mxPoint x="425" y="949" as="targetPoint" />
          </mxGeometry>
        </mxCell>
        <mxCell id="_P0uxnq6mlZvh_pGcT41-35" value="" style="ellipse;html=1;shape=endState;fillColor=strokeColor;" vertex="1" parent="1">
          <mxGeometry x="410" y="950" width="30" height="30" as="geometry" />
        </mxCell>
      </root>
    </mxGraphModel>
  </diagram>
</mxfile>
